name D:\school\WTK\thesis\model\3dpredictsim\Results\Batchsim_tmt_linear_v2\Pog_s1_tmt_aCst_d02_k2000_ig24.mot
datacolumns 128
datarows 4
range 0.00000000 0.03102422
endheader
time	pelvis_tilt	pelvis_list	pelvis_rotation	pelvis_tx	pelvis_ty	pelvis_tz	hip_flexion_l	hip_adduction_l	hip_rotation_l	hip_flexion_r	hip_adduction_r	hip_rotation_r	knee_angle_l	knee_angle_r	ankle_angle_l	ankle_angle_r	subtalar_angle_l	subtalar_angle_r	tmt_angle_l	tmt_angle_r	mtp_angle_l	mtp_angle_r	lumbar_extension	lumbar_bending	lumbar_rotation	arm_flex_l	arm_add_l	arm_rot_l	arm_flex_r	arm_add_r	arm_rot_r	elbow_flex_l	elbow_flex_r	pro_sup_l	pro_sup_r	glut_med1_l/activation	glut_med2_l/activation	glut_med3_l/activation	glut_min1_l/activation	glut_min2_l/activation	glut_min3_l/activation	semimem_l/activation	semiten_l/activation	bifemlh_l/activation	bifemsh_l/activation	sar_l/activation	add_long_l/activation	add_brev_l/activation	add_mag1_l/activation	add_mag2_l/activation	add_mag3_l/activation	tfl_l/activation	pect_l/activation	grac_l/activation	glut_max1_l/activation	glut_max2_l/activation	glut_max3_l/activation	iliacus_l/activation	psoas_l/activation	quad_fem_l/activation	gem_l/activation	peri_l/activation	rect_fem_l/activation	vas_med_l/activation	vas_int_l/activation	vas_lat_l/activation	med_gas_l/activation	lat_gas_l/activation	soleus_l/activation	tib_post_l/activation	flex_dig_l/activation	flex_hal_l/activation	tib_ant_l/activation	per_brev_l/activation	per_long_l/activation	per_tert_l/activation	ext_dig_l/activation	ext_hal_l/activation	ercspn_l/activation	intobl_l/activation	extobl_l/activation	glut_med1_r/activation	glut_med2_r/activation	glut_med3_r/activation	glut_min1_r/activation	glut_min2_r/activation	glut_min3_r/activation	semimem_r/activation	semiten_r/activation	bifemlh_r/activation	bifemsh_r/activation	sar_r/activation	add_long_r/activation	add_brev_r/activation	add_mag1_r/activation	add_mag2_r/activation	add_mag3_r/activation	tfl_r/activation	pect_r/activation	grac_r/activation	glut_max1_r/activation	glut_max2_r/activation	glut_max3_r/activation	iliacus_r/activation	psoas_r/activation	quad_fem_r/activation	gem_r/activation	peri_r/activation	rect_fem_r/activation	vas_med_r/activation	vas_int_r/activation	vas_lat_r/activation	med_gas_r/activation	lat_gas_r/activation	soleus_r/activation	tib_post_r/activation	flex_dig_r/activation	flex_hal_r/activation	tib_ant_r/activation	per_brev_r/activation	per_long_r/activation	per_tert_r/activation	ext_dig_r/activation	ext_hal_r/activation	ercspn_r/activation	intobl_r/activation	extobl_r/activation	
          0.00000000	         -1.98134839	          1.05959186	          4.31432058	          0.00000000	          0.87451318	         -0.00160542	        -18.56991796	          1.60091116	          4.74848864	         25.75417209	         -0.52139697	         -3.72930611	         -4.17233563	         -8.75821139	         -7.50511161	          5.49235647	          6.78210785	          5.45437654	          0.54635075	          0.01819726	         25.74587082	         -0.11667626	         -0.15929629	         -3.31380105	         -1.35005009	          4.02784074	        -13.46783548	         12.05955718	         -7.56480339	        -13.45101452	         15.74176794	         20.17676662	         15.81019547	         86.51662706	         86.51662706	          0.30088192	          0.09445149	          0.08056552	          0.27109448	          0.16115628	          0.09445149	          0.05000222	          0.05000023	          0.05000021	          0.05000033	          0.09432467	          0.05000010	          0.05000009	          0.05000017	          0.05000079	          0.05000085	          0.22803031	          0.05000032	          0.05000029	          0.05053126	          0.05004027	          0.05000249	          0.35069865	          0.65592322	          0.05000038	          0.05271165	          0.07414752	          0.28709083	          0.05000834	          0.05001791	          0.05000678	          0.20047754	          0.28870840	          0.20966149	          0.22207763	          0.19036542	          0.28402583	          0.05000006	          0.07692527	          0.13682579	          0.05000032	          0.05000010	          0.05000031	          0.05000000	          0.05000002	          0.05000003	          0.05000030	          0.06872128	          0.09974957	          0.05000027	          0.05000043	          0.06011522	          0.06872090	          0.06007618	          0.06872144	          0.05000248	          0.05000063	          0.05000027	          0.05000079	          0.13595832	          0.13959592	          0.13605565	          0.05000217	          0.05000121	          0.05851990	          0.05861846	          0.07238170	          0.15097259	          0.05000006	          0.05000009	          0.06123071	          0.05000050	          0.05000126	          0.05000026	          0.05000195	          0.05001253	          0.05000119	          0.05000004	          0.05000011	          0.05000000	          0.05572754	          0.05861815	          0.05861800	          0.43604812	          0.26064796	          0.17465654	          0.16234024	          0.44134160	          0.21788520	          0.05459714	          0.15875040	          0.15068137	
          0.01034141	         -1.97146905	          1.12969420	          4.46963039	          0.01573075	          0.87324108	         -0.00151008	        -18.52212846	          1.48832897	          4.53448375	         25.30993329	         -0.40288764	         -3.51135444	         -5.98237527	         -8.54179484	         -8.09233546	          5.07896011	          7.67098976	          5.03464185	          0.52015873	          0.01990846	         26.67651371	         -0.09183163	          0.01715426	         -3.16231021	         -1.39955435	          3.88628410	        -13.48923567	         12.23760829	         -8.58620945	        -13.44979739	         15.69806218	         20.91108408	         15.83200014	         86.51662706	         86.51662706	          0.25664723	          0.08056551	          0.06872102	          0.23123902	          0.13746357	          0.08056553	          0.05000123	          0.05000016	          0.05000013	          0.05000026	          0.08045763	          0.11892722	          0.07822639	          0.05026782	          0.05000368	          0.05000060	          0.19450599	          0.05874726	          0.05004854	          0.05000143	          0.05000089	          0.05000117	          0.29913997	          0.58315148	          0.05951228	          0.05000053	          0.06324664	          0.24488353	          0.10872323	          0.11084974	          0.07862684	          0.17100388	          0.24626334	          0.20741883	          0.20376156	          0.16240709	          0.24227119	          0.05000002	          0.06561650	          0.13941832	          0.05000018	          0.05000005	          0.05000015	          0.05000005	          0.05000019	          0.05645057	          0.05861786	          0.05861844	          0.24192803	          0.05861863	          0.05861815	          0.05861065	          0.05861790	          0.05124403	          0.05861832	          0.05000025	          0.05000112	          0.09445153	          0.15192544	          0.12743545	          0.17189294	          0.15596245	          0.05000016	          0.06875492	          0.05000218	          0.05000064	          0.06174039	          0.18423428	          0.05861795	          0.05000206	          0.05222876	          0.11704920	          0.10402079	          0.05826362	          0.20354528	          0.20352287	          0.17699792	          0.05000006	          0.05000009	          0.05023195	          0.05000001	          0.05000036	          0.05000028	          0.56573127	          0.26371971	          0.14897915	          0.46524704	          0.52646387	          0.31297624	          0.05000014	          0.13541135	          0.12852860	
          0.02068281	         -1.95491483	          1.18163378	          4.60151994	          0.03176204	          0.87193590	         -0.00140823	        -18.35770190	          1.36019786	          4.30927365	         24.77694848	         -0.29016698	         -3.26093088	         -8.01853095	         -8.92736256	         -8.71105342	          4.42846465	          8.56592954	          4.61163477	          0.47618913	          0.01181576	         27.37025204	         -0.04558151	          0.21677687	         -2.97656391	         -1.44428911	          3.67068376	        -13.51643710	         12.39466721	         -9.63271799	        -13.45241591	         15.64037683	         21.64453532	         15.87565650	         86.51662706	         86.51662706	          0.21891569	          0.06872101	          0.05861790	          0.19724300	          0.11725409	          0.06872105	          0.05000452	          0.05000048	          0.05000127	          0.05000009	          0.06862914	          0.17027462	          0.19739875	          0.05900908	          0.05861115	          0.05862670	          0.16591031	          0.05011067	          0.05000099	          0.05861082	          0.05861756	          0.05861802	          0.25516124	          0.51316734	          0.05861785	          0.05861798	          0.05638656	          0.20888142	          0.12989156	          0.15218959	          0.15204376	          0.14586335	          0.21005839	          0.17692472	          0.17380525	          0.13853086	          0.20665340	          0.05000004	          0.05596981	          0.15169628	          0.05000010	          0.05000005	          0.05000022	          0.05000002	          0.06872083	          0.07252481	          0.05000008	          0.05000076	          0.20636051	          0.05000071	          0.05000033	          0.05000030	          0.05000010	          0.05000014	          0.05000045	          0.05000006	          0.05000018	          0.08056561	          0.12958983	          0.19227545	          0.19002684	          0.15711559	          0.05861876	          0.05864712	          0.05861606	          0.10339628	          0.10619516	          0.15714882	          0.05000017	          0.05000044	          0.15716927	          0.09984103	          0.08872798	          0.06872104	          0.22417668	          0.24620177	          0.18216202	          0.05000017	          0.05000053	          0.05000002	          0.05861784	          0.06530743	          0.06871864	          0.48255898	          0.31174757	          0.17361805	          0.39684782	          0.44906462	          0.26696334	          0.05000000	          0.11550354	          0.10963268	
          0.03102422	         -1.93353853	          1.21454911	          4.70990035	          0.04797407	          0.87057066	         -0.00130893	        -18.09491519	          1.21971637	          4.07576707	         24.12153092	         -0.20748547	         -2.99675698	        -10.23470543	         -9.63534674	         -9.31529852	          3.93061941	          9.43276488	          4.16755106	          0.41314716	         -0.00433224	         27.65224957	         -0.18067499	          0.42819776	         -2.75972422	         -1.48102961	          3.40122495	        -13.54734629	         12.52717324	        -10.67898415	        -13.46285338	         15.60329187	         22.37487215	         15.92212321	         86.51662706	         86.51662706	          0.24883794	          0.05861785	          0.05000007	          0.22785447	          0.10001576	          0.05861791	          0.05741510	          0.05000024	          0.05000016	          0.05000063	          0.05867767	          0.16880695	          0.18674038	          0.05033415	          0.05000196	          0.05000779	          0.14151873	          0.08994138	          0.05000101	          0.05000070	          0.05000058	          0.05000074	          0.21764819	          0.48232902	          0.05000008	          0.05000029	          0.05000007	          0.17817224	          0.11079531	          0.12981514	          0.12969076	          0.12441892	          0.17917618	          0.15091373	          0.14825294	          0.11816460	          0.17627192	          0.05000005	          0.12653638	          0.13473501	          0.05000061	          0.10644669	          0.05000035	          0.05521084	          0.05861768	          0.06186242	          0.21679330	          0.22803408	          0.35243566	          0.27260958	          0.21693552	          0.20255782	          0.06872118	          0.05000136	          0.06906160	          0.07891992	          0.06418385	          0.06872110	          0.11053791	          0.16400769	          0.16208970	          0.15112998	          0.05000098	          0.05002531	          0.05000031	          0.16919105	          0.14665423	          0.13404739	          0.05000383	          0.05000066	          0.13406274	          0.08516811	          0.19314403	          0.05861787	          0.19121887	          0.21000589	          0.15538109	          0.05000097	          0.05000171	          0.05000027	          0.05000005	          0.05861777	          0.05861757	          0.55125396	          0.26921427	          0.14809336	          0.60133204	          0.54352519	          0.31129981	          0.05000004	          0.09852253	          0.09351478	
